<svg version="1" xmlns="http://www.w3.org/2000/svg" width="682.667" height="682.667" viewBox="0 0 512.000000 512.000000"><path d="M233.5 142.9c-16.6 3.8-30.9 9.5-39.2 15.7-1.7 1.3-3.6 2.4-4.1 2.4-.6 0-1.2.3-1.4.8-.1.4-2.3 2.3-4.8 4.2-18.7 14.6-31.9 30.7-40.2 48.9-2.2 4.7-4.7 10.4-5.8 12.6-3.3 7.2-5.2 18.7-6 35.5-1.1 24.7 1.5 37.9 11.2 58 2.8 5.8 5.2 11 5.4 11.7.7 3.6 15.3 21.2 23 27.9 3.3 2.8 8.8 7.2 12.4 9.8 3.6 2.5 7.6 5.6 9 6.8 5 4.2 20.1 10.2 35 13.9 8.3 2 12 2.3 29.3 2.4 16.8 0 19.5.2 18 1.4-1.7 1.2-1.7 1.3.2.8 1.1-.3 4.7-1.1 8-1.8 14.9-2.9 32-10.4 46.4-20.2 4.2-2.8 12.3-9.9 18.1-15.7 16.5-16.5 27-34 33-54.9 3.4-11.6 3.6-13.5 1.4-10.6-1.3 1.8-1.4 1.5-.7-4 .4-3.3.8-14.6.7-25-.1-17.2-.3-19.9-2.7-28.5-2.8-10.5-9-25.9-11-27.5-.6-.6-3.9-5.1-7.1-10-3.2-5-9.5-12.8-14-17.3-8.7-9-19.6-18.2-21.6-18.2-.6 0-2.4-.8-3.8-1.9-6.6-4.6-24.6-12.6-33.7-14.9-2.2-.5-6.2-1.6-9-2.3-2.8-.7-12.4-1.4-21.5-1.5-13-.2-18.2.1-24.5 1.5zM489.2 275c0 1.9.2 2.7.5 1.7.2-.9.2-2.5 0-3.5-.3-.9-.5-.1-.5 1.8zM22.1 274.6c0 1.1.3 1.4.6.6.3-.7.2-1.6-.1-1.9-.3-.4-.6.2-.5 1.3zM488.2 284.5c0 1.6.2 2.2.5 1.2.2-.9.2-2.3 0-3-.3-.6-.5.1-.5 1.8zM23.2 285c0 1.4.2 1.9.5 1.2.2-.6.2-1.8 0-2.5-.3-.6-.5-.1-.5 1.3zM487.2 291.5c0 1.6.2 2.2.5 1.2.2-.9.2-2.3 0-3-.3-.6-.5.1-.5 1.8zM24.2 292c0 1.4.2 1.9.5 1.2.2-.6.2-1.8 0-2.5-.3-.6-.5-.1-.5 1.3z"/><path d="M484.6 304c-4.2 20.8-16.3 50.7-28.6 71-18.3 30.2-47.8 59.7-78 78-28.4 17.3-64 29.3-97.2 32.9-12.5 1.4-37.1 1.4-49.6 0-44.2-4.8-89-23.4-122.9-51-38.4-31.4-65.9-73.8-78.7-121.6-3.3-12-4.9-15.8-2.5-5.5 10.7 45 31.9 83.2 63.8 114.9 18.5 18.4 37.7 32 61.6 43.8 22.8 11.2 44.5 18 70.7 22.1 15.7 2.5 49.9 2.5 65.6 0 26.2-4.1 47.9-10.9 70.7-22.1 59.9-29.5 104-82.3 122-146 3.6-12.7 6.1-24.3 5.3-25-.2-.2-1.2 3.6-2.2 8.5z"/><path d="M25.2 298c0 1.4.2 1.9.5 1.2.2-.6.2-1.8 0-2.5-.3-.6-.5-.1-.5 1.3z"/></svg>